<?xml version="1.0" encoding="iso-8859-1"?>
<!-- Generator: Adobe Illustrator 19.0.0, SVG Export Plug-In . SVG Version: 6.00 Build 0)  -->
<svg version="1.1" id="Layer_1" xmlns="http://www.w3.org/2000/svg" xmlns:xlink="http://www.w3.org/1999/xlink" x="0px" y="0px"
	 viewBox="0 0 512 512" style="enable-background:new 0 0 512 512;" xml:space="preserve">
<path style="fill:#C56C4D;" d="M264,408.784h-32c-8.8,0-16,7.192-16,16V496c0,8.8,7.2,16,16,16h32V408.784z"/>
<path style="fill:#B36345;" d="M280,408.784h-24V512h24c8.8,0,16-7.2,16-16v-71.216C296,415.976,288.8,408.784,280,408.784z"/>
<path style="fill:#84BD5A;" d="M437.376,400L376,304h8c0.056,0.008,0.12,0,0.16,0c8.84,0,16-7.168,16-16
	c0-4.032-1.488-7.704-3.936-10.512L320,176h16c0.056,0,0.12,0,0.16,0c8.84,0,16-7.168,16-16c0-3.856-1.368-7.408-3.648-10.168
	l-78.944-102.32C266.64,42.84,261.512,40,256,40s-10.64,2.84-13.568,7.512l-80,104c-3.08,4.936-3.24,11.16-0.424,16.24
	S170.176,176,176,176h16l-77.312,103.128c-3.272,4.904-3.576,11.216-0.8,16.424c2.792,5.2,8.216,8.448,14.112,8.448h8l-61.376,96
	c-3.224,4.912-3.504,11.2-0.704,16.376C76.712,421.544,82.12,424,88,424h336c5.88,0,11.288-2.456,14.08-7.624
	C440.872,411.2,440.6,404.912,437.376,400z"/>
<path style="fill:#73AE44;" d="M256,40c5.512,0,10.64,2.84,13.568,7.512l80,104c3.08,4.936,3.24,11.16,0.424,16.24
	S341.824,176,336,176h-16l77.312,103.128c3.272,4.904,3.576,11.216,0.8,16.424C395.32,300.752,389.896,304,384,304h-8l61.376,96
	c3.224,4.912,3.504,11.2,0.704,16.376c-2.792,5.168-8.2,7.624-14.08,7.624h-88l-24-104v-16l-32-112v-16L256,40z"/>
<path style="fill:#90C660;" d="M256,40c-5.512,0-10.64,2.84-13.568,7.512l-80,104c-3.08,4.936-3.24,11.16-0.424,16.24
	S170.176,176,176,176h16l-77.312,103.128c-3.272,4.904-3.576,11.216-0.8,16.424c2.792,5.2,8.216,8.448,14.112,8.448h8l-61.376,96
	c-3.224,4.912-3.504,11.2-0.704,16.376C76.712,421.544,82.12,424,88,424h88l24-104v-16l32-112v-16L256,40z"/>
<g>
	<polygon style="fill:#6FA14E;" points="280,192 331.136,192 320,176 280,176 	"/>
	<polygon style="fill:#6FA14E;" points="312,320 386.312,320 376,304 312,304 	"/>
</g>
<g>
	<polygon style="fill:#73AE44;" points="280,192 180.864,192 192,176 280,176 	"/>
	<polygon style="fill:#73AE44;" points="312,320 125.688,320 136,304 312,304 	"/>
</g>
<rect x="216" y="424" style="fill:#B86548;" width="40" height="16"/>
<rect x="256" y="424" style="fill:#A2593E;" width="40" height="16"/>
<g>
	<polygon style="fill:#84BD5A;" points="232,192 180.864,192 192,176 232,176 	"/>
	<polygon style="fill:#84BD5A;" points="200,320 125.688,320 136,304 200,304 	"/>
</g>
<circle style="fill:#FCD063;" cx="144" cy="376" r="16"/>
<circle style="fill:#F15642;" cx="240" cy="352" r="16"/>
<g>
	<circle style="fill:#FCD063;" cx="344" cy="368" r="16"/>
	<circle style="fill:#FCD063;" cx="264" cy="272" r="16"/>
</g>
<circle style="fill:#F15642;" cx="192" cy="240" r="16"/>
<g>
	<circle style="fill:#009ED1;" cx="312" cy="232" r="16"/>
	<circle style="fill:#009ED1;" cx="232" cy="120" r="16"/>
</g>
<g>
	<circle style="fill:#F15642;" cx="280" cy="136" r="16"/>
	<path style="fill:#F15642;" d="M279.168,80c-0.392,0-0.8-0.112-1.168-0.296l-22.016-13.032l-22.016,13.032
		c-0.84,0.472-1.856,0.392-2.64-0.2c-0.76-0.584-1.152-1.576-0.976-2.56l4.192-25.696l-17.808-18.176
		c-0.68-0.704-0.92-1.752-0.632-2.688c0.296-0.952,1.08-1.656,2.016-1.8l24.616-3.752l11.008-23.376
		C254.168,0.568,255.04,0,255.992,0l0,0c0.944,0,1.816,0.568,2.232,1.456l11.024,23.376l24.608,3.752
		c0.936,0.144,1.728,0.84,2.016,1.8c0.296,0.936,0.04,1.984-0.64,2.688l-17.808,18.176l4.192,25.696
		c0.168,0.984-0.208,1.976-0.976,2.56C280.192,79.832,279.688,80,279.168,80z"/>
</g>
<g>
</g>
<g>
</g>
<g>
</g>
<g>
</g>
<g>
</g>
<g>
</g>
<g>
</g>
<g>
</g>
<g>
</g>
<g>
</g>
<g>
</g>
<g>
</g>
<g>
</g>
<g>
</g>
<g>
</g>
</svg>
