<?xml version="1.0" encoding="iso-8859-1"?>
<!-- Generator: Adobe Illustrator 16.0.0, SVG Export Plug-In . SVG Version: 6.00 Build 0)  -->
<!DOCTYPE svg PUBLIC "-//W3C//DTD SVG 1.1//EN" "http://www.w3.org/Graphics/SVG/1.1/DTD/svg11.dtd">
<svg version="1.1" id="Capa_1" xmlns="http://www.w3.org/2000/svg" xmlns:xlink="http://www.w3.org/1999/xlink" x="0px" y="0px"
	 width="374.575px" height="374.575px" viewBox="0 0 374.575 374.575" style="enable-background:new 0 0 374.575 374.575;"
	 xml:space="preserve">
<g>
	<g>
		<path d="M334.717,145.391h-17.154l5.385-5.384c3.123-3.124,3.123-8.188,0-11.312c-3.125-3.124-8.189-3.125-11.314,0
			l-12.191,12.191v-15.139c0-4.418-3.582-8-8-8s-8,3.582-8,8v31.139l-18.713,18.713c-12.537-11.515-27.637-20.276-44.334-25.324
			c13.279-10.047,21.879-25.971,21.879-43.869c0-16.449-7.27-31.222-18.752-41.308h23.023c4.418,0,8-3.582,8-8s-3.582-8-8-8h-20.758
			V8c0-4.418-3.582-8-8-8h-61.001c-4.418,0-8,3.582-8,8v41.097h-20.758c-4.418,0-8,3.582-8,8s3.582,8,8,8h23.025
			C139.57,75.182,132.3,89.956,132.3,106.405c0,17.898,8.6,33.821,21.88,43.869c-16.698,5.048-31.798,13.81-44.335,25.324
			l-18.712-18.712v-31.14c0-4.418-3.582-8-8-8s-8,3.582-8,8v15.14l-12.192-12.192c-3.124-3.123-8.188-3.125-11.314,0
			c-3.124,3.124-3.124,8.189,0,11.312l5.384,5.384H39.856c-4.418,0-8,3.582-8,8s3.582,8,8,8h33.155l25.821,25.821
			c-16.322,19.804-26.137,45.164-26.137,72.771c0,63.187,51.405,114.593,114.592,114.593c63.188,0,114.592-51.406,114.592-114.593
			c0-27.606-9.814-52.967-26.137-72.771l21.352-21.352c0.002-0.002,0.006-0.005,0.008-0.008l4.463-4.461h33.154c4.418,0,8-3.582,8-8
			S339.135,145.391,334.717,145.391z M164.785,16h45.002v33.097h-45.002V16L164.785,16z M148.3,106.405
			c0-21.497,17.489-38.986,38.986-38.986c21.498,0,38.986,17.489,38.986,38.986s-17.488,38.986-38.986,38.986
			C165.789,145.391,148.3,127.902,148.3,106.405z M285.877,259.982c0,54.362-44.229,98.592-98.591,98.592
			s-98.592-44.229-98.592-98.592c0-23.195,8.056-44.541,21.51-61.397l13.967,13.966c1.562,1.562,3.609,2.344,5.657,2.344
			s4.095-0.78,5.657-2.344c3.124-3.123,3.124-8.188,0-11.312l-14.322-14.323c17.502-15.854,40.704-25.525,66.123-25.525
			c25.419,0,48.621,9.671,66.123,25.525l-14.322,14.323c-3.123,3.123-3.123,8.188,0,11.312c1.562,1.562,3.609,2.344,5.658,2.344
			c2.047,0,4.094-0.78,5.656-2.344l13.967-13.966C277.823,215.441,285.877,236.787,285.877,259.982z"/>
		<circle cx="187.286" cy="195.462" r="8.715"/>
		<circle cx="187.286" cy="226.955" r="8.714"/>
		<circle cx="187.286" cy="258.451" r="8.714"/>
	</g>
</g>
<g>
</g>
<g>
</g>
<g>
</g>
<g>
</g>
<g>
</g>
<g>
</g>
<g>
</g>
<g>
</g>
<g>
</g>
<g>
</g>
<g>
</g>
<g>
</g>
<g>
</g>
<g>
</g>
<g>
</g>
</svg>
