<?xml version="1.0" ?><svg width="24px" height="24px" viewBox="0 0 24 24" fill="none" xmlns="http://www.w3.org/2000/svg"><path clip-rule="evenodd" d="M14.4495 4.55495C15.264 4.31223 15.8631 4.48426 16.1 4.80007C16.4013 5.20182 16.4765 5.57305 16.4336 5.91424C16.3888 6.27088 16.2084 6.63998 15.9211 7.00139C15.3397 7.73275 14.4193 8.30877 13.8244 8.53186C13.598 8.61674 13.4648 8.85138 13.508 9.08924C13.5511 9.32709 13.7582 9.50002 13.9999 9.50002L19.4999 9.50002V12.5H17.9999C17.7237 12.5 17.4999 12.7239 17.4999 13V20.5H6.49988V14.5C6.49988 14.2239 6.27602 14 5.99988 14C5.72374 14 5.49988 14.2239 5.49988 14.5V21C5.49988 21.2762 5.72374 21.5 5.99988 21.5H17.9999C18.276 21.5 18.4999 21.2762 18.4999 21V13.5H19.9999C20.276 13.5 20.4999 13.2762 20.4999 13V9.00002C20.4999 8.86741 20.4472 8.74023 20.3534 8.64646C20.2597 8.5527 20.1325 8.50002 19.9999 8.50002L15.8202 8.50002C16.1407 8.24235 16.4465 7.94742 16.7039 7.62365C17.0625 7.17257 17.3508 6.63541 17.4258 6.03894C17.5027 5.42702 17.3487 4.79826 16.8999 4.20003C16.2882 3.3845 15.1373 3.30652 14.1639 3.5966C13.3806 3.83005 12.5842 4.3279 12.0008 5.07014C11.4285 4.33982 10.6586 3.86464 9.88727 3.64427C8.91382 3.36616 7.82238 3.47045 7.14633 4.14645C6.65753 4.63523 6.41235 5.18234 6.41347 5.75925C6.41457 6.32144 6.64952 6.84016 6.97799 7.28883C7.30058 7.72946 7.7389 8.13769 8.22434 8.50002L3.99988 8.50002C3.86727 8.50002 3.74009 8.5527 3.64632 8.64646C3.55256 8.74023 3.49988 8.86741 3.49988 9.00002V13C3.49988 13.2762 3.72374 13.5 3.99988 13.5H15.4999C15.776 13.5 15.9999 13.2762 15.9999 13C15.9999 12.7239 15.776 12.5 15.4999 12.5H4.49988V9.50002L9.99995 9.50002C10.2318 9.50002 10.4333 9.34058 10.4866 9.1149C10.5398 8.88921 10.431 8.65651 10.2236 8.55281C9.25206 8.06706 8.29723 7.39797 7.78487 6.69811C7.53216 6.35292 7.41402 6.03722 7.41347 5.7573C7.41295 5.49209 7.51758 5.1894 7.85342 4.85358C8.17738 4.52964 8.83597 4.38393 9.61256 4.6058C10.3657 4.82096 11.1212 5.36045 11.5528 6.22359C11.6375 6.39298 11.8106 6.49997 12 6.49997C12.1894 6.49997 12.3625 6.39297 12.4472 6.22358C12.8783 5.36141 13.672 4.78667 14.4495 4.55495Z" fill="black" fill-rule="evenodd"/></svg>